<?xml version='1.0' encoding='utf-8'?>
<svg xmlns="http://www.w3.org/2000/svg" width="1e3" height="1e3" version="1.1" viewBox="0 0 264.58 264.58"> <rect x="-1.3506e-5" width="264.58" height="264.58" fill="#f7f7f7" style="paint-order:stroke markers fill"/> <g transform="translate(-1.2131 -5.2917)"> <path d="m159.44 92.463h18.79c0.76232 0 1.376 0.61304 1.376 1.3745v103.64c0 0.76149-0.6137 1.3745-1.376 1.3745h-89.441c-0.76231 0-1.376-0.61304-1.376-1.3745v-103.64c0-0.76149 0.6137-1.3745 1.376-1.3745h18.79" fill="none" stroke="#4d4d4d" stroke-linejoin="round" stroke-width="7.9375" style="paint-order:fill markers stroke"/> <path d="m133.5 71.19c-5.5866 0-9.5227 3.8896-10.084 8.6847l-0.5504 4.701h-13.856c-0.79809 0-1.4406 0.64263-1.4406 1.4409v12.759c0 0.79825 0.6425 1.4409 1.4406 1.4409h48.98c0.7981 0 1.4406-0.64263 1.4406-1.4409v-12.759c0-0.79825-0.6425-1.4409-1.4406-1.4409h-13.856l-0.55041-4.701c-0.55952-4.7788-4.4975-8.6847-10.084-8.6847z" fill="none" stroke="#0573e1" stroke-linecap="round" stroke-linejoin="round" stroke-width="6.6146" style="paint-order:fill markers stroke"/> <path d="m126.07 126.5h41.28" fill="#4d4d4d" stroke="#4d4d4d" stroke-width="6.6146"/> <path d="m101.57 126.42 5.9783 5.7655 13.625-13.14" fill="none" stroke="#0573e1" stroke-width="5.2917"/> <path d="m126.07 148.96h41.28" fill="#4d4d4d" stroke="#4d4d4d" stroke-width="6.6146"/> <path d="m101.57 148.87 5.9783 5.7655 13.625-13.14" fill="none" stroke="#0573e1" stroke-width="5.2917"/> <path d="m126.07 171.41h41.28" fill="#4d4d4d" stroke="#4d4d4d" stroke-width="6.6146"/> <path d="m101.57 171.33 5.9783 5.7655 13.625-13.14" fill="none" stroke="#0573e1" stroke-width="5.2917"/> </g> </svg>